<svg width="1280" height="832" viewBox="0 0 1280 832" fill="none" xmlns="http://www.w3.org/2000/svg">
<path fill-rule="evenodd" clip-rule="evenodd" d="M127.888 0.484895L0.447683 0.484895L0.447683 138.518H114.685L127.888 124.218V0.484895ZM141.443 138.518L128.41 124.403V0.484895L255.851 0.484895V138.518H141.443ZM128.41 152.99L141.249 139.084H255.851V277.118H128.41V152.99ZM114.879 139.084L127.888 153.174V277.118H0.447683L0.447683 139.084H114.879ZM0 0L0 138.599L0 139.003L0 277.198L0 277.603L0 415.798L0 416.202L0 554.397L0 554.801L0 692.997L0 693.401L0 832H127.963H128.336H255.925H256.299H383.888H384.261H511.851H512.224H639.813H640.186H767.776H768.149H895.739H896.112H1023.7H1024.07L1151.66 832H1152.04H1280L1280 693.401V554.801V554.397V415.798V277.603V139.003V138.599V0L1152.04 0L1151.66 0L1024.07 0L1023.7 0L896.112 0L895.739 0L768.149 0L767.776 0L640.186 0L639.813 0L512.224 0L511.851 0L384.261 0L383.888 0L256.299 0L255.925 0L128.336 0L127.963 0L0 0ZM256.373 0.484895L383.813 0.484895V138.518L256.373 138.518V0.484895ZM511.776 0.484895L384.336 0.484895V138.518H511.776V0.484895ZM512.298 0.484895L639.739 0.484895V138.518H512.298V0.484895ZM767.701 0.484895L640.261 0.484895V138.518H767.701V0.484895ZM768.224 0.484895L895.664 0.484895V138.518L768.224 138.518V0.484895ZM1023.63 0.484895L896.186 0.484895V138.518H1023.63V0.484895ZM1024.15 0.484895L1151.59 0.484895V138.518H1024.15V0.484895ZM1279.55 0.484895L1152.11 0.484895V138.518H1279.55V0.484895ZM256.373 139.084L383.813 139.084V277.118H256.373V139.084ZM511.776 139.084H384.336V277.118H498.957L511.776 263.234V139.084ZM524.912 277.118L512.298 263.456V139.084H639.739V277.118L524.912 277.118ZM512.298 292.005L525.478 277.731L525.434 277.683L639.739 277.683V415.717L512.298 415.717V292.005ZM498.435 277.683L498.392 277.731L511.776 292.228V415.717H384.336V277.683H498.435ZM767.701 139.084H640.261V277.118H767.701V139.084ZM768.224 139.084L895.664 139.084V277.118H768.224V139.084ZM1023.63 139.084H896.186V277.118H1023.63V139.084ZM1024.15 139.084H1151.59V238.823L1151.37 239.057L1116.23 277.118H1024.15V139.084ZM1115.71 277.683H1024.15V402.118L1024.58 401.655L1037.56 415.717H1151.59V316.639L1151.37 316.404L1116.01 278.105L1115.67 277.731L1115.71 277.683ZM1151.59 315.89L1116.36 277.731L1116.4 277.683H1138.22L1138.18 277.731L1151.59 292.259V315.89ZM1152.11 316.353V415.717H1279.55V277.683H1187.73L1187.77 277.731L1187.42 278.105L1152.11 316.353ZM1187.03 277.683L1187.08 277.731L1152.11 315.604V291.974L1165.26 277.731L1165.22 277.683H1187.03ZM1187.2 277.118H1279.55V139.084H1152.11V239.109L1187.2 277.118ZM1152.11 239.858L1186.51 277.118H1164.7L1152.11 263.488V239.858ZM1151.59 239.572L1116.92 277.118H1138.74L1151.59 263.202V239.572ZM1024.15 430.528L1024.58 430.992L1038.12 416.324L1038.08 416.283H1151.59V554.316L1024.15 554.316V430.528ZM1011.07 416.283L1011.03 416.324L1023.63 429.963V554.316H896.186V416.283H1011.07ZM1023.63 402.684L1011.59 415.717H896.186V277.683H1023.63V402.684ZM0.447683 277.683H127.888V415.717H0.447683L0.447683 277.683ZM255.851 277.683H128.41V415.717H255.851V277.683ZM256.373 277.683H383.813V415.717H256.373V277.683ZM767.702 277.683H640.261V415.717H767.702V277.683ZM768.224 277.683H895.664V415.717H768.224V277.683ZM0.447683 416.283H127.888L127.888 554.316H0.447683L0.447683 416.283ZM255.851 416.283H128.41V554.316H220.638L220.473 554.137L220.818 553.762L255.851 515.818V416.283ZM255.851 516.567L221.164 554.137L221.33 554.316H243.147L242.981 554.137L255.851 540.197V516.567ZM256.373 539.632V516.001L256.524 515.838L291.884 554.137L291.718 554.316H269.901L270.067 554.137L256.524 539.468L256.373 539.632ZM256.373 568.642L256.524 568.806L269.379 554.882H291.195L256.524 592.436L256.373 592.272V568.642ZM243.669 554.882L255.851 568.076V591.707L221.852 554.882H243.669ZM221.161 554.882H128.41V692.916H255.851V592.456L221.161 554.882ZM256.373 593.021V692.916H383.813V554.882H291.887L256.87 592.81L256.524 593.185L256.373 593.021ZM292.409 554.316H383.813V416.283H256.373V515.252L256.524 515.089L256.87 515.463L292.229 553.762L292.575 554.137L292.409 554.316ZM511.776 416.283H384.336V554.316H511.776V416.283ZM512.298 416.283L639.739 416.283V554.316H512.298V416.283ZM767.701 416.283H640.261V554.316H767.701V416.283ZM768.224 416.283H895.664V554.316H768.224V416.283ZM1279.55 416.283H1152.11V554.316H1279.55V416.283ZM0.447683 554.882H127.888V692.916H0.447683L0.447683 554.882ZM511.776 554.882H384.336V692.916H511.776V554.882ZM512.298 554.882H639.739V692.916H512.298V554.882ZM767.701 554.882H640.261V692.916H767.701V554.882ZM768.224 554.882H895.664V692.916H768.224V554.882ZM1023.63 554.882H896.186V692.916H1023.63V554.882ZM1024.15 554.882L1151.59 554.882V692.916L1024.15 692.916V554.882ZM1279.55 554.882H1152.11V692.916H1279.55V554.882ZM0.447683 693.481H127.888V831.515H0.447683L0.447683 693.481ZM255.851 693.481H128.41V831.515H255.851V693.481ZM256.373 693.481H383.813V831.515H256.373V693.481ZM511.776 693.481H384.336V831.515H511.776V693.481ZM512.298 693.481H639.739V831.515H512.298V693.481ZM767.701 693.481H640.261V831.515H767.701V693.481ZM768.224 693.481H895.664V831.515H768.224V693.481ZM1023.63 693.481H896.186V831.515H1023.63V693.481ZM1024.15 693.481L1151.59 693.481V831.515L1024.15 831.515V693.481ZM1279.55 693.481H1152.11V831.515H1279.55V693.481Z" fill="url(#paint0_radial_222_104)" fill-opacity="0.2"/>
<defs>
<radialGradient id="paint0_radial_222_104" cx="0" cy="0" r="1" gradientUnits="userSpaceOnUse" gradientTransform="translate(640 -466.979) rotate(90) scale(1194.15 1837.15)">
<stop stop-color="white"/>
<stop offset="1" stop-color="white" stop-opacity="0.67"/>
</radialGradient>
</defs>
</svg>
