<svg width="475" height="1014" viewBox="0 0 475 1014" fill="none" xmlns="http://www.w3.org/2000/svg">
<path fill-rule="evenodd" clip-rule="evenodd" d="M0.276833 912.157L0.276833 1013.05L79.0821 1013.05L79.0821 922.61L70.9178 912.157H0.276833ZM79.0821 901.425L71.0231 911.743H0.276833L0.276833 810.845H79.0821L79.0821 901.425ZM87.344 911.743L79.4051 901.579L79.4051 810.845H158.21L158.21 911.743H87.344ZM79.4051 922.456L87.4493 912.157H158.21V1013.05H79.4051L79.4051 922.456ZM0 1013.41H79.1283H79.3589H158.256H158.487H237.385H237.615H316.513H316.743L395.641 1013.41H395.872H475V912.098V911.802V810.786V810.491L475 709.475V709.18V608.164V607.868V506.852V506.557V405.541V405.246V304.23V303.934L475 202.919V202.623V101.607V101.312V0.000395361L395.872 8.29697e-05L316.743 8.29697e-05H316.513H237.385H158.487H79.3589H79.1283H0L0 101.312L0 101.607L0 202.623L0 202.919L0 303.934L0 304.23L0 405.246L0 405.541L0 506.557L0 506.852L0 607.868L0 608.164L0 709.18L0 709.475L0 810.491L0 810.786L0 911.802L0 912.098L0 1013.41ZM0.276833 810.432L0.276833 709.534H79.0821V810.432H0.276833ZM0.276833 608.223L0.276833 709.121H79.0821L79.0821 608.223H0.276833ZM0.276833 607.809L0.276833 506.911H79.0821L79.0821 607.809H0.276833ZM0.276833 405.6L0.276833 506.498H79.0821L79.0821 405.6H0.276833ZM0.276833 405.187L0.276833 304.289H79.0821V405.187H0.276833ZM0.276833 202.977L0.276833 303.875H79.0821L79.0821 202.977H0.276833ZM0.276833 202.564L0.276833 101.666H79.0821L79.0821 202.564H0.276833ZM0.276833 0.354491L0.276833 101.252H79.0821L79.0821 0.354491H0.276833ZM79.4051 810.432V709.534H158.21V810.432H79.4051ZM79.4051 608.223L79.4051 709.121H158.21L158.21 618.372L150.284 608.223H79.4051ZM158.21 597.823L150.41 607.809H79.4051L79.4051 506.911H158.21V597.823ZM166.71 607.809L158.56 597.375L158.533 597.409V506.911L237.338 506.911V607.809H166.71ZM158.533 618.785L158.56 618.82L166.837 608.223H237.338L237.338 709.121H158.533L158.533 618.785ZM79.4051 405.6L79.4051 506.498H158.21V405.6H79.4051ZM79.4051 405.187V304.289H158.21L158.21 405.187H79.4051ZM79.4051 202.977L79.4051 303.875H158.21V202.977H79.4051ZM79.4051 202.564L79.4051 101.666H136.347L136.481 101.837L158.21 129.659V202.564H79.4051ZM158.533 130.072V202.564H229.575L229.31 202.225L237.338 191.946V101.666H180.773L180.639 101.837L158.774 129.833L158.56 130.106L158.533 130.072ZM180.346 101.666L158.56 129.559L158.533 129.524V112.251L158.56 112.286L166.855 101.666H180.346ZM180.61 101.253H237.338L237.338 0.354882H158.533V73.0556L158.56 73.021L158.774 73.2948L180.61 101.253ZM158.533 73.603L158.56 73.5685L180.183 101.253H166.692L158.56 90.8412L158.533 90.8758V73.603ZM158.21 73.4688V0.354491H79.4051L79.4051 101.252H136.51L158.21 73.4688ZM136.938 101.252L158.21 74.0163V91.2891L150.429 101.252H136.938ZM136.775 101.666L158.21 129.111V111.838L150.266 101.666H136.775ZM245.794 202.564L246.059 202.225L237.685 191.503L237.661 191.532V101.666H316.467V202.564H245.794ZM237.661 212.918L237.685 212.947L245.472 202.977H316.467L316.467 303.875H237.661V212.918ZM229.898 202.977L237.338 212.504V303.875H158.533V202.977H229.898ZM158.533 1013.05V912.157H237.338V1013.05H158.533ZM158.533 810.845L158.533 911.743H237.338L237.338 810.845H158.533ZM158.533 810.432V709.534H237.338V810.432H158.533ZM158.533 405.6V506.498L237.338 506.498V405.6H158.533ZM158.533 405.187L158.533 304.289H237.338L237.338 405.187H158.533ZM237.661 1013.05V912.157H316.467V1013.05H237.661ZM237.661 810.845L237.661 911.743H316.467V838.724L316.364 838.855L316.15 838.581L294.487 810.845H237.661ZM294.915 810.845L316.364 838.308L316.467 838.176V820.903L316.364 821.035L308.406 810.845H294.915ZM308.083 810.432H294.592L294.499 810.312L316.364 782.317L316.467 782.448V799.721L316.364 799.59L307.99 810.312L308.083 810.432ZM324.645 810.432L324.739 810.312L316.79 800.135V782.862L338.23 810.312L338.136 810.432H324.645ZM316.79 820.49L324.322 810.845H337.813L316.79 837.763V820.49ZM316.79 838.31V911.743L395.595 911.743V810.845H338.241L316.79 838.31ZM338.564 810.432H395.595L395.595 709.534H316.79L316.79 782.315L338.443 810.039L338.657 810.312L338.564 810.432ZM316.467 781.901L316.467 709.534H237.661V810.432H294.165L294.071 810.312L294.285 810.039L316.15 782.043L316.364 781.77L316.467 781.901ZM237.661 608.223L237.661 709.121H316.467V608.223H237.661ZM237.661 607.809V506.911H316.467V607.809H237.661ZM237.661 405.6V506.498H316.467V405.6H237.661ZM237.661 405.187L237.661 304.289H316.467V405.187H237.661ZM237.661 0.354491L237.661 101.252H316.467V0.354491H237.661ZM316.79 1013.05V912.157L395.595 912.157V1013.05H316.79ZM316.79 608.223V709.121H395.595V608.223H316.79ZM316.79 607.809V506.911H395.595V607.809H316.79ZM316.79 405.6V506.498H395.595V405.6L316.79 405.6ZM316.79 405.187V304.289L395.595 304.289V405.187L316.79 405.187ZM316.79 202.977L316.79 303.875L395.595 303.875L395.595 202.977L316.79 202.977ZM316.79 202.564V101.666L395.595 101.666V202.564L316.79 202.564ZM316.79 0.354491V101.252L395.595 101.252V0.354491L316.79 0.354491ZM395.918 1013.05V912.157H474.723V1013.05H395.918ZM395.918 810.845V911.743H474.723V810.845L395.918 810.845ZM395.918 810.432L395.918 709.534H474.723L474.723 810.432L395.918 810.432ZM395.918 608.223V709.121H474.723V608.223H395.918ZM395.918 607.809V506.911H474.723V607.809H395.918ZM395.918 405.6V506.498H474.723V405.6H395.918ZM395.918 405.187V304.289H474.723V405.187H395.918ZM395.918 202.977L395.918 303.875H474.723L474.723 202.977H395.918ZM395.918 202.564V101.666H474.723V202.564H395.918ZM395.918 0.354882V101.253H474.723V0.354882H395.918Z" fill="url(#paint0_radial_222_103)" fill-opacity="0.1"/>
<defs>
<radialGradient id="paint0_radial_222_103" cx="0" cy="0" r="1" gradientUnits="userSpaceOnUse" gradientTransform="translate(-266.604 506.704) scale(681.757 1454.52)">
<stop stop-color="white"/>
<stop offset="1" stop-color="white" stop-opacity="0.67"/>
</radialGradient>
</defs>
</svg>
